<svg xmlns="http://www.w3.org/2000/svg" width="358.98" height="472.58" viewBox="0 0 358.98 472.58"><title>fist-icon</title><path d="M253.29,216l62.83-82.71L359,165.83l-62.83,82.75Zm-12.86-9.53,66.81-88-45-34.15-66.81,88ZM213,108.67l-19.3,39.57,57-75-42.51-32.3L171.9,88.65ZM192.21,35.43,145.57,0l-42,55.31,53.67,26.17ZM299.21,271l-139-102.71-9.92.91,4.56,2L217,309.58l-16.52,2.25-57.68-128.5-40-17.7-4-30.84,39.41,19.42,36.36-3.33,17-34.83L80.68,62,0,174.47,101.09,327,78.39,472.58h186.1V352.91L299.78,304l10.71-47.92Z" fill="#fff"/></svg>