<svg xmlns="http://www.w3.org/2000/svg" width="490" height="490.01" viewBox="0 0 490 490.01"><title>paper-icon</title><path d="M487.44,338.21c-72.6-85.7-127.16-205.29-148-329.58C338.88,5.05,333.7-4,323,2L141.64,136.55a10.44,10.44,0,0,0-4.07,10.09c2.89,17.28,10.07,50.84,9.92,50.61L3.74,313.61c-6.14,5.31-3.27,12.56-1.52,14.71C65.67,406,170,463.38,296.05,489.79a10.44,10.44,0,0,0,8.45-1.91L485.74,353.39C489.13,351.42,492.45,344.14,487.44,338.21ZM25.13,323.12,153.38,219.31c.59,2.17,1.17,4.35,1.77,6.52l.13-.18C180,314,220.22,396.41,270.9,462.5,168.24,436,80.33,386.25,25.13,323.12ZM299.84,465.36c-58.17-70.28-103.69-162.76-128.93-262h0q-6.84-26.7-11.67-53.9L321.89,28.75c22.68,119.37,72.82,230.08,142.51,314.5Z" fill="#fff"/></svg>