<svg xmlns="http://www.w3.org/2000/svg" width="332.73" height="405.43" viewBox="0 0 332.73 405.43"><title>scissors-icon</title><path d="M232.17,260c-1.53-2.41-8.69-11.2-11.08-14.11-3.78-4.61-8.1-4.11-11.49,0-8.27,9.94-19.83,23.73-26.46,31.63-4.4,5.24-5.23,9.39-1.73,13.26,1.54,1.71,8,9.05,8,9.05A75,75,0,1,0,232.17,260Zm51.77,96.62a34.69,34.69,0,1,1,0-49.06A34.7,34.7,0,0,1,283.94,356.64Z" fill="#fff"/><path d="M115.12,208.12c8.52-11.6,22.22-29.08,29.38-39,3.6-5,3.93-8.8,0-14.21C117.9,118.09,37.1,8.21,37.1,8.21,25.92-4.91,13.29-2,9,14.72L1.31,44.94c-4.26,16.7,2.22,40.34,14.41,52.53,0,0,66.48,82.78,88.28,110.65C107.59,212.7,112.12,212.2,115.12,208.12Z" fill="#fff"/><path d="M22.71,273.08a75,75,0,1,0,121.41,22.39L305,103.22C317.22,91,323.71,67.39,319.44,50.69l-7.71-30.22C307.46,3.77,294.83.84,283.66,14L106.1,249.07a58.88,58.88,0,0,0-4.79,6.61A74.94,74.94,0,0,0,22.71,273.08Zm26.83,30.16a34.69,34.69,0,1,1,0,49.07A34.69,34.69,0,0,1,49.54,303.24Z" fill="#fff"/></svg>